<svg xmlns="http://www.w3.org/2000/svg" width="512" height="512" viewBox="0 0 512 512">
  <defs>
    <radialGradient id="bg" cx="50%" cy="38%" r="75%">
      <stop offset="0%" stop-color="#103030"/>
      <stop offset="55%" stop-color="#0a1518"/>
      <stop offset="100%" stop-color="#060a0d"/>
    </radialGradient>
    <radialGradient id="gem" cx="42%" cy="34%" r="70%">
      <stop offset="0%" stop-color="#bff6e4"/>
      <stop offset="45%" stop-color="#62d7b2"/>
      <stop offset="100%" stop-color="#0e6f58"/>
    </radialGradient>
    <filter id="glow" x="-40%" y="-40%" width="180%" height="180%">
      <feGaussianBlur stdDeviation="14" result="b"/>
      <feMerge><feMergeNode in="b"/><feMergeNode in="SourceGraphic"/></feMerge>
    </filter>
  </defs>
  <rect width="512" height="512" rx="112" fill="url(#bg)"/>
  <rect x="6" y="6" width="500" height="500" rx="108" fill="none" stroke="#1c3640" stroke-width="3"/>
  <!-- four-point spirit-stone star, maskable-safe (centered ~44%) -->
  <g filter="url(#glow)" transform="translate(256,256)">
    <path d="M0,-150 C26,-46 46,-26 150,0 C46,26 26,46 0,150 C-26,46 -46,26 -150,0 C-46,-26 -26,-46 0,-150 Z"
          fill="url(#gem)"/>
    <path d="M0,-150 C26,-46 46,-26 150,0 C46,26 26,46 0,150 C-26,46 -46,26 -150,0 C-46,-26 -26,-46 0,-150 Z"
          fill="none" stroke="#dffaf0" stroke-width="2" opacity="0.55"/>
    <circle cx="-34" cy="-40" r="20" fill="#ffffff" opacity="0.5"/>
  </g>
</svg>
